<svg
  xmlns="http://www.w3.org/2000/svg"
  width="3831.69"
  height="2635.39"
  viewBox="0 0 3831.69 2635.39"
>
  <title>logosvg</title>
  <path
    d="M3548.35,1944c29.66,32.11,57.41,66,85,100,6.1,7.51,8.11,18.19,12.76,27,13.86,26.31,24.12,55.86,43.08,77.84,31.27,36.25,53.46,74,53.74,122.94,0,9.9,4.21,19.77,7.23,33,42.46-45.39,114.55-167.71,135-255.39,17-72.73,35-152.74-33.81-214.18-3.55,19.28-5.91,38.87-11.38,57.55-1.56,5.33-11.78,9.4-18.77,11.22-2.73.71-11-6.63-10.76-9.87,2.07-28-20.11-36.36-36.36-51.63-15.65-14.71-25.23-36.37-35.38-56-2.18-4.25,3-17.07,7.65-18.9,6.32-2.51,17.2-.74,22.74,3.56,9.58,7.42,15,20.86,25.07,26.83s23.93,8.16,36.14,8.22c15.17.07,30.37-3.73,45.55-5.85l10.14,8c2.2-18.35,16.76-33.6,13.71-51-6.53-37.46-17.64-79.7-28.41-116.26-96.42-311.79-266.24-554.84-531.78-729.67C3268,861,3207.57,832.51,3135.12,796.86c12,52.18-12.24,93.74-47.09,88,.93,15,4.72,31.84,1.59,47.29-1.28,6.29-19.54,15.28-26.63,12.87-12.2-4.14-21.7-16.24-39.4-30.81l43.72-6.56c-1.22-4.5-1.35-8.19-2.43-8.49-61-17.11-121.39-37.6-183.47-48.69-20.09-3.59-45.3,16.3-66.65,28.17-6.19,3.44-5.24,17.89-10.8,24.63-28.89,35.06-55.15,73.65-89.48,102.49-32.22,27.07-6.28,45.48.82,66,7.87,22.78,24.49,21.43,43.08,8.64,30.63-21,44-17.44,63.94,15.73,11.31,18.81,21.5,38.28,36,64.24,15.69-17.33,31.74-28.12,37.2-42.84,6.95-18.74,5.33-40.66,7.4-61.2l11.78-3.91c-4.12-1.9-8.83-3.07-12.27-5.82-39.07-31.25-40-40.28-9.93-78.19,3.17-4,3.24-10.31,5.63-15.1,3.92-7.83,7.41-20.44,13.17-21.74,9.62-2.16,22.92.35,30.59,6.23,3.74,2.86,1.31,19.92-3.59,26.81-16.87,23.74-7.06,44.33,7.88,61.28s35.55,21.46,58,9.72c10.62-5.54,23.26-10.19,34.84-9.86,7.85.22,15.44,9.8,23.15,15.19-7.47,4.93-14.35,11.78-22.55,14.31-10.88,3.36-22.8,3.36-35.14,4.91,4.1,14.48,6.94,24.53,10.05,35.53l-29.62,6.92c3.61,62.6,3.61,62.6-57.48,82.83-4.27,1.42-8.52,2.92-12.85,4.14-71.34,20-101.79,2.13-116.91-68.49-.58-2.71-3.15-5-3.9-6.13-60.5,16.53-11.18,51.76-13.52,82.08-37.73,6.3-72.95,13.5-96.52,51.49-15.46,24.93-46.59,40.39-71.41,59.14-7.61,5.75-17.23,9.77-26.55,12.18-29,7.51-58.29,13.87-92.9,21.93,18.77,13.34,35.89,22.61,49.34,35.66,27.55,26.74,22.54,58.91,14.68,93.12-5.25,22.83-13.65,30.48-36.13,26.62-34.34-5.88-69-9.69-103.4-15.35-44.08-7.27-57.85,5-54.82,47.79,1,13.92.6,30.06-5.46,42-17.63,34.7-23.29,69.39-13.45,98.12,20.68,14.69,34.71,26,50.07,35.08,10.33,6.1,23.61,14.38,33.7,12.36,31.82-6.38,63.24-15.8,93.9-26.65,27.75-9.82,55.57-22.12,56.92-58.37,1.46-38.82,24.51-57,58.9-68.53,10-3.34,20.84-18.29,22.57-29.3,5-32,23.32-48.66,52.43-36.4,24.93,10.51,42.55,3.36,62.23-9.78,38.19-25.51,45.31-22.74,80.54,8.85,30.47,27.33,64,51.28,96.39,76.45,14.16,11,30.79,19.56,42.71,32.52,9.05,9.86,20.67,30.39,16.61,36.51-8,12-25.31,19.91-40.3,24.82-14.76,4.82-31.42,3.84-47.24,5.41l-.88,9.5,63,22.75c11.85-17.22,20.1-27.22,26.11-38.43,7.5-14,22.78-35.48,18-42.47-30.68-45.34,5.4-31,37.18-28.59-33.9-20.66-60-33.41-82.34-50.93-31.84-24.95-61.51-52.81-90.64-80.94-5.07-4.89-2.94-17.25-5.05-33,23.58,8.9,41.35,12.74,56,21.7,35.27,21.62,68.55,46.47,103.67,68.33,18.08,11.26,31,21.17,31.59,46.36.36,15.51,14.31,31.67,24.6,45.76a443.37,443.37,0,0,0,44.88,52.79c11.71,11.66,26.6,20.12,42.52,31.79,8.22-26.24,13.39-42.71,19.31-61.59-41.49-17.28-36.58-45.13-13.67-76,45.53-1.27,48.15.43,65,40.56,5.21,12.4,7.73,28.8,17.13,36,23.21,17.71,49.68,31.13,74.84,46.28,17.19-32,51.24-20,77.16-28.62,40.52-13.5,53.27-4.86,56.93,38.28,3,35.76,2,71.91,1.6,107.87-.08,7.15-3.78,18.91-8.61,20.62-39.84,14.08-80.35,26.3-120.68,39-1,.3-2.21-.27-3.31-.49-47.88-9.79-96.05-18.39-143.55-29.77-33.83-8.1-63.84,12-61.64,46.42,1.77,27.6-14.59,34.87-35.41,32.27-34.91-4.36-71.66-4.47-97.16-37.54-7.48-9.71-24.89-12.82-38.4-16.61-31.06-8.72-63-14.48-93.48-24.81-8.85-3-21.18-23.59-19.45-25.66,18.58-22.14,14.4-42.74,7.3-68.79-7.48-27.44-16.2-34.21-45.73-28.29-38.54,7.73-78.45,8.85-117.82,12.22-18.34,1.57-37.46-1-55.08,3.16-28.29,6.69-57.06,14.44-83.07,27-56.34,27.28-108.57,13.5-152.12-5.9-42.35,38.87-82.43,74.8-121.33,112-10,9.53-21.83,22.33-23.2,34.68-5.37,48.7-41.12,72.92-77.9,88.14-27.59,11.42-48.61,24.91-65.58,47.85-16,21.68-33.94,42.11-48.68,64.62-28.45,43.5-72.88,78.14-53.56,144.12,9.58,32.75,2.34,77.22-13,108.7-17.7,36.23-30.53,67.21-14.08,105.74,6,14.08,6.75,31.53,15.6,43.08,34.39,44.9,84.95,78.17,96.85,139.13,1.28,6.52,9,12.71,15,17.21,44.28,32.72,88.45,65.64,133.83,96.8,8.68,6,22.5,5.92,34,6.05,26.48.31,53.11-2.89,79.45-1.2,41.94,2.7,82,16.36,126.1,3.32,48.83-14.45,100.71-18.32,150.93-28.46,26.36-5.33,44.49,2.28,53.05,27.35,9.33,27.34,28.26,31.66,53.05,26.21,8.78-1.93,18.08-1.94,26.55-4.66,33.08-10.63,51,14.53,67.79,33.13,6.05,6.7-4.68,29.46-9.14,44.47a180.37,180.37,0,0,1-14,34.17c-17.58,32.54-4.44,55.46,22,74.69,9.08,6.61,17.71,14.21,27.62,19.24,54.19,27.52,45.53,84,56.35,129.68,3,12.57-22.73,32.27-35.89,48.21-7.85,9.51-20.63,16.7-24.5,27.37-5.45,15-10,34-5.47,48.31,8.81,27.84,23.95,55.95,36.62,82.57,15.68-3.66,23.54-5.38,38.56-10.17,13.16-4,17.24-4.64,29.15-8.51,83.11-28.36,160.58-60.51,243-96.12,118.68-55.14,210.11-145.47,307.58-232.37,12.63-10,19.49-30,24.32-46.76,28.41-98.28,75.76-186.73,134.11-270.17,61.36-87.76,115.32-179.87,145.4-283.5,8.51-29.32,8.63-61.07,12.6-91.7l-10.87-2.06c-17,20.67-33.19,42.11-51.46,61.6-6.73,7.18-18.65,13.61-27.72,13-5.86-.39-10-14.89-16.36-21.79-16.21-17.7-33.3-34.59-49.83-52-7.77-8.18-17.21-15.74-22.18-25.47-22.92-44.82-58.42-84.4-59.51-138.62,0-1-1.06-1.94-1.66-2.89-29.76-47.43-60.24-94.43-88.61-142.67-5-8.41-1-22-1.2-33.27C3526.71,1935.79,3541.34,1936.35,3548.35,1944Zm25.52-589.83q71,85,138.35,173c3.51,4.59-6,26.23-6.86,26.07-18.26-3.34-36.68-7.43-53.76-14.52-4.55-1.89-6.75-14.23-6.65-21.72.49-36.11-21.79-55.65-48.57-74.51-34.31-24.16-52.06-55.84-61.76-106.4C3551.29,1343.41,3566.59,1345.41,3573.87,1354.12ZM3468.73,1501c-16.3,3.14-34.2,5.37-50.07,1.88-33.54-7.37-61.37-9.14-87.13,22-8.22,9.93-38.17,8.23-55.28,2.77-18.88-6-33.19-22.79-28.11-47.6,5-24.21,8.31-48.75,13.22-73,6.86-33.87,27.34-40.4,54.19-17.56,11.11,9.45,21.68,19.51,34.36,31,34.22-28.1,60.36-26.38,112.29,8,7.48,5,16.64,9.29,21.18,16.37,8,12.43,16,26.46,17.35,40.47C3501.16,1489.7,3480.58,1498.7,3468.73,1501Z"
    transform="translate(-69 -680.06)"
    fill="#fff"
    
  />
  <path
    d="M2038.2,920.51c-17.18,18.9-21.67,34.08-8.69,55.3,45.32-26.35,87.53-58.14,135-76.43,47-18.13,98.86-25.48,149.3-32.42,60.74-8.36,112.82-30.48,159.93-70.4,30.08-25.49,67-43,102.25-64.93-1.42-2.77-1.14-43.88-5.07-51.57-69.77,0-140.48,9.16-211,19.34-7.06,6.58-15.69,28.92-23.87,33.52-29.29,16.49-60.32,30.06-88.8,47.79C2176.07,825,2096.54,856.33,2038.2,920.51Z"
    transform="translate(-69 -680.06)"
    fill="#fff"
  />
  <path
    d="M1782.45,949.62c-101.6,76.31-190,166.81-267.55,269.26,16.61-24.37,41.94-5.39,53.88,8.8,19.07-14,51.56-28.28,50.35-38.65-4.2-36.14,26.74-41.65,42.18-58.34,9.58-10.35,31.07-9.67,47.21-14q2.34,6.27,4.7,12.53l-58.4,49.62c7.33,13.84,13.88,26.19,22,41.47,6.42-8,10.84-12.59,14.25-17.85,22.79-35.06,45.3-70.31,68-105.41,18.58-28.71,37.08-57.49,56.14-85.88,8-11.93,15.24-26,26.47-33.86,49.4-34.67,99.14-69.08,150.64-100.5,62.77-38.3,123.92-95.14,195-135.82C2058.89,781.11,1913.17,851.44,1782.45,949.62Z"
    transform="translate(-69 -680.06)"
    fill="#fff"
    
  />
  <path
    d="M1578.69,2838.66c16.51-13.12,13.91-26.81,5.31-44.26-35.19-71.44-83.42-132.69-141.53-186.49-59.47-55-90.65-127.79-117.4-200.79-23.7-64.66-44.32-133.7-61.35-200.81,36.76,223.83,89.94,334.85,136.3,426.1,48.46,95.4,91.63,155.15,184.79,269.48C1585.38,2880.94,1550.32,2861.21,1578.69,2838.66Z"
    transform="translate(-69 -680.06)"
    fill="#fff"
    
  />
  <path
    d="M2499.9,1298.53c38.65-23.08,92.5-.25,123.73-39.65-12.81-58.5-64.75-90.72-63.35-148.92.15-6.15-20.83-12.81-32-19.23-6,11.06-16.1,21.79-17,33.27-1.09,13.33,5.83,27.31,8.05,36.09,13.21,8.91,32.7,20.48,32,21.82-12.36,24.37-27.15,47.51-40.66,69.66C2507.51,1265.3,2504.25,1279.52,2499.9,1298.53Z"
    transform="translate(-69 -680.06)"
    fill="#fff"
    
  />
  <path
    d="M2483.43,1171.18c-26-10-41.79-5.21-72.23,22.32l15,27L2397,1237.69C2472.61,1237.85,2473,1237.5,2483.43,1171.18Z"
    transform="translate(-69 -680.06)"
    fill="#fff"
    
  />
  <path
    d="M2431.91,921.78c-11.84-11.68-87.49-3.21-101.6,10,15.51,26.3,83.27,32.67,103.5,8.81C2436.78,937.11,2435.53,925.35,2431.91,921.78Z"
    transform="translate(-69 -680.06)"
    fill="#fff"
    
  />
  <path
    d="M2814.83,1527.13c-1.87,40.41-3.5,75.57-5.32,114.81C2843.26,1632,2845.23,1570.1,2814.83,1527.13Z"
    transform="translate(-69 -680.06)"
    fill="#fff"
    
  />
  <polygon
    points="2838.55 2634.4 1387.12 2634.4 0 1.35 1451.43 1.35 2838.55 2634.4"
    fill="#fff"
  />
</svg>
